# xmcd CD database file
#
# Track frame offsets:
#	150
#	20427
#	41374
#	59866
#	75971
#	90389
#	111437
#	127623
#	148831
#	168081
#
# Disc length: 2472 seconds
#
# Revision: 0
# Processed by: cddbd v1.5.2PL0 Copyright (c) Steve Scherf et al.
# Submitted via: CDex 1.70beta2
#
DISCID=7609a60a
DTITLE=Alicia Keys - Smooth Jazz Tribute
DYEAR=2009
DGENRE=Jazz
TTITLE0=No One
TTITLE1=Like You'll Never See Me Again
TTITLE2=If I Ain't Got You
TTITLE3=Fallin'
TTITLE4=Another Way To Die
TTITLE5=Superwoman
TTITLE6=Teenage Love Affair
TTITLE7=Lesson Learned
TTITLE8=Karma
TTITLE9=You Don't Know My Name
EXTD=YEAR: 2009
EXTT0=
EXTT1=
EXTT2=
EXTT3=
EXTT4=
EXTT5=
EXTT6=
EXTT7=
EXTT8=
EXTT9=
PLAYORDER=
